<?xml version="1.0" encoding="utf-8"?>
<!-- Generator: Adobe Illustrator 16.0.4, SVG Export Plug-In . SVG Version: 6.00 Build 0)  -->
<!DOCTYPE svg PUBLIC "-//W3C//DTD SVG 1.1//EN" "http://www.w3.org/Graphics/SVG/1.1/DTD/svg11.dtd">
<svg version="1.1" id="Layer_1" xmlns:sketch="http://www.bohemiancoding.com/sketch/ns"
	 xmlns="http://www.w3.org/2000/svg" xmlns:xlink="http://www.w3.org/1999/xlink" x="0px" y="0px" width="98px" height="97px"
	 viewBox="0 0 98 97" enable-background="new 0 0 98 97" xml:space="preserve">
<g opacity="0.82">
	<g>
		<path fill="#FFFFFF" d="M49.25,5.5C73.374,5.5,93,25.126,93,49.25S73.374,93,49.25,93S5.5,73.374,5.5,49.25S25.126,5.5,49.25,5.5
			 M49.25,1.5C22.878,1.5,1.5,22.878,1.5,49.25C1.5,75.622,22.878,97,49.25,97C75.622,97,97,75.622,97,49.25
			C97,22.878,75.622,1.5,49.25,1.5L49.25,1.5z"/>
	</g>
	<path id="yin_1_" fill="none" stroke="#FFFFFF" stroke-width="3" stroke-miterlimit="10" d="M42.157,92.832
		C24.036,90.104,8.752,76.291,5.056,57.287C0.359,33.148,16.136,9.777,40.292,5.085c11.737-2.28,23.1,5.38,25.382,17.107
		c2.281,11.728-5.385,23.084-17.121,25.363c-13.103,2.545-21.66,15.222-19.112,28.316S47.054,93.568,42.157,92.832L42.157,92.832
		L42.157,92.832z"/>
	<title>yin_yang</title>
	<description>Created with Sketch (http://www.bohemiancoding.com/sketch)</description>
	<text transform="matrix(1 0 0 1 33.6743 37.3691)" fill="#FFFFFF" font-family="'Monaco'" font-size="27.2857">0</text>
	<g id="yang_1_">
		<path fill="#FFFFFF" d="M54.59,4.684c0.159,0,0.399,0.025,0.73,0.075c18.121,2.727,33.404,16.541,37.101,35.544
			c4.696,24.138-11.08,47.511-35.236,52.203c-1.395,0.271-2.784,0.401-4.154,0.401c-10.155,0-19.217-7.175-21.228-17.51
			c-2.281-11.728,5.384-23.083,17.122-25.362c13.103-2.545,21.659-15.223,19.111-28.316C65.661,9.512,52.405,4.684,54.59,4.684
			 M54.591,1.684L54.591,1.684c-1.81,0-2.809,1.188-3.113,2.206c-0.683,2.272,1.104,3.45,2.538,4.396
			c2.867,1.891,9.58,6.32,11.074,14.006c1.08,5.545-0.067,11.179-3.229,15.862c-3.161,4.684-7.959,7.857-13.51,8.936
			c-6.462,1.255-12.049,4.95-15.731,10.405c-3.683,5.454-5.019,12.016-3.762,18.476c2.248,11.552,12.414,19.937,24.173,19.937
			c1.577,0,3.167-0.153,4.727-0.456c12.469-2.422,23.249-9.552,30.353-20.076s9.681-23.184,7.256-35.645
			C91.533,20.026,75.619,4.78,55.767,1.792C55.261,1.716,54.909,1.684,54.591,1.684L54.591,1.684z"/>
	</g>
	<text transform="matrix(1 0 0 1 45.3843 80.7988)" fill="#FFFFFF" font-family="'Monaco'" font-size="27.2857">1</text>
</g>
</svg>
